<mxfile host="app.diagrams.net" modified="2024-01-19T23:47:50.460Z" agent="Mozilla/5.0 (Windows NT 10.0; Win64; x64) AppleWebKit/537.36 (KHTML, like Gecko) Chrome/120.0.0.0 Safari/537.36" etag="ZE66vvSobj1HX37QiMTt" version="22.1.17" type="github">
  <diagram name="Page-1" id="DBbhH1fyEOL2zr9KewBM">
    <mxGraphModel dx="1859" dy="418" grid="1" gridSize="10" guides="1" tooltips="1" connect="1" arrows="1" fold="1" page="1" pageScale="1" pageWidth="827" pageHeight="1169" math="0" shadow="0">
      <root>
        <mxCell id="0" />
        <mxCell id="1" parent="0" />
        <mxCell id="wCGS2TDMBN-PWQRGa2nd-78" value="" style="group" vertex="1" connectable="0" parent="1">
          <mxGeometry x="-20" y="180" width="750" height="260" as="geometry" />
        </mxCell>
        <mxCell id="wCGS2TDMBN-PWQRGa2nd-79" value="" style="rounded=0;whiteSpace=wrap;html=1;" vertex="1" parent="wCGS2TDMBN-PWQRGa2nd-78">
          <mxGeometry x="10" width="510" height="103.13" as="geometry" />
        </mxCell>
        <mxCell id="wCGS2TDMBN-PWQRGa2nd-80" value="alt" style="rounded=0;whiteSpace=wrap;html=1;" vertex="1" parent="wCGS2TDMBN-PWQRGa2nd-78">
          <mxGeometry x="10" width="60" height="25.3825" as="geometry" />
        </mxCell>
        <mxCell id="wCGS2TDMBN-PWQRGa2nd-81" value="else [failure] InvalidResponse" style="html=1;verticalAlign=bottom;endArrow=open;dashed=1;endSize=8;edgeStyle=elbowEdgeStyle;elbow=vertical;curved=0;rounded=0;" edge="1" parent="wCGS2TDMBN-PWQRGa2nd-78">
          <mxGeometry relative="1" as="geometry">
            <mxPoint x="300" y="75.796875" as="targetPoint" />
            <Array as="points">
              <mxPoint x="395" y="75.796875" />
            </Array>
            <mxPoint x="470" y="75.796875" as="sourcePoint" />
          </mxGeometry>
        </mxCell>
        <mxCell id="wCGS2TDMBN-PWQRGa2nd-82" value="&lt;div&gt;DataInvlid&lt;/div&gt;" style="html=1;verticalAlign=bottom;endArrow=open;dashed=1;endSize=8;edgeStyle=elbowEdgeStyle;elbow=vertical;curved=0;rounded=0;" edge="1" parent="wCGS2TDMBN-PWQRGa2nd-78">
          <mxGeometry relative="1" as="geometry">
            <mxPoint x="110" y="75.625" as="targetPoint" />
            <Array as="points">
              <mxPoint x="205" y="75.625" />
            </Array>
            <mxPoint x="280" y="75.625" as="sourcePoint" />
          </mxGeometry>
        </mxCell>
        <mxCell id="wCGS2TDMBN-PWQRGa2nd-83" value="&lt;div&gt;[sucess] displayValid()&lt;/div&gt;" style="html=1;verticalAlign=bottom;endArrow=open;dashed=1;endSize=8;edgeStyle=elbowEdgeStyle;elbow=vertical;curved=0;rounded=0;" edge="1" parent="wCGS2TDMBN-PWQRGa2nd-78">
          <mxGeometry relative="1" as="geometry">
            <mxPoint x="300" y="41.421875" as="targetPoint" />
            <Array as="points">
              <mxPoint x="395" y="41.421875" />
            </Array>
            <mxPoint x="470" y="41.421875" as="sourcePoint" />
          </mxGeometry>
        </mxCell>
        <mxCell id="wCGS2TDMBN-PWQRGa2nd-84" value="&lt;div&gt;loginResultValid&lt;/div&gt;" style="html=1;verticalAlign=bottom;endArrow=open;dashed=1;endSize=8;edgeStyle=elbowEdgeStyle;elbow=vertical;curved=0;rounded=0;" edge="1" parent="wCGS2TDMBN-PWQRGa2nd-78">
          <mxGeometry relative="1" as="geometry">
            <mxPoint x="110" y="41.25" as="targetPoint" />
            <Array as="points">
              <mxPoint x="205" y="41.25" />
            </Array>
            <mxPoint x="280" y="41.25" as="sourcePoint" />
          </mxGeometry>
        </mxCell>
        <mxCell id="wCGS2TDMBN-PWQRGa2nd-85" value=":UserInterface" style="shape=umlLifeline;perimeter=lifelinePerimeter;whiteSpace=wrap;html=1;container=0;dropTarget=0;collapsible=0;recursiveResize=0;outlineConnect=0;portConstraint=eastwest;newEdgeStyle={&quot;edgeStyle&quot;:&quot;elbowEdgeStyle&quot;,&quot;elbow&quot;:&quot;vertical&quot;,&quot;curved&quot;:0,&quot;rounded&quot;:0};" vertex="1" parent="1">
          <mxGeometry x="30" y="40" width="100" height="1350" as="geometry" />
        </mxCell>
        <mxCell id="wCGS2TDMBN-PWQRGa2nd-86" value="" style="html=1;points=[];perimeter=orthogonalPerimeter;outlineConnect=0;targetShapes=umlLifeline;portConstraint=eastwest;newEdgeStyle={&quot;edgeStyle&quot;:&quot;elbowEdgeStyle&quot;,&quot;elbow&quot;:&quot;vertical&quot;,&quot;curved&quot;:0,&quot;rounded&quot;:0};" vertex="1" parent="wCGS2TDMBN-PWQRGa2nd-85">
          <mxGeometry x="45" y="70" width="10" height="1200" as="geometry" />
        </mxCell>
        <mxCell id="wCGS2TDMBN-PWQRGa2nd-87" value="dispatch" style="html=1;verticalAlign=bottom;startArrow=oval;endArrow=block;startSize=8;edgeStyle=elbowEdgeStyle;elbow=vertical;curved=0;rounded=0;" edge="1" parent="wCGS2TDMBN-PWQRGa2nd-85" target="wCGS2TDMBN-PWQRGa2nd-86">
          <mxGeometry relative="1" as="geometry">
            <mxPoint x="-15" y="70" as="sourcePoint" />
          </mxGeometry>
        </mxCell>
        <mxCell id="wCGS2TDMBN-PWQRGa2nd-88" value=":UserController" style="shape=umlLifeline;perimeter=lifelinePerimeter;whiteSpace=wrap;html=1;container=0;dropTarget=0;collapsible=0;recursiveResize=0;outlineConnect=0;portConstraint=eastwest;newEdgeStyle={&quot;edgeStyle&quot;:&quot;elbowEdgeStyle&quot;,&quot;elbow&quot;:&quot;vertical&quot;,&quot;curved&quot;:0,&quot;rounded&quot;:0};" vertex="1" parent="1">
          <mxGeometry x="220" y="40" width="100" height="250" as="geometry" />
        </mxCell>
        <mxCell id="wCGS2TDMBN-PWQRGa2nd-89" value="" style="html=1;points=[];perimeter=orthogonalPerimeter;outlineConnect=0;targetShapes=umlLifeline;portConstraint=eastwest;newEdgeStyle={&quot;edgeStyle&quot;:&quot;elbowEdgeStyle&quot;,&quot;elbow&quot;:&quot;vertical&quot;,&quot;curved&quot;:0,&quot;rounded&quot;:0};" vertex="1" parent="wCGS2TDMBN-PWQRGa2nd-88">
          <mxGeometry x="45" y="80" width="10" height="150" as="geometry" />
        </mxCell>
        <mxCell id="wCGS2TDMBN-PWQRGa2nd-90" value="&lt;div&gt;&lt;font style=&quot;font-size: 10px;&quot;&gt;requestLogin(username, password)&lt;/font&gt;&lt;/div&gt;" style="html=1;verticalAlign=bottom;endArrow=block;edgeStyle=elbowEdgeStyle;elbow=vertical;curved=0;rounded=0;" edge="1" parent="1">
          <mxGeometry relative="1" as="geometry">
            <mxPoint x="92.5" y="130" as="sourcePoint" />
            <Array as="points">
              <mxPoint x="177.5" y="130" />
            </Array>
            <mxPoint x="262.5" y="130" as="targetPoint" />
          </mxGeometry>
        </mxCell>
        <mxCell id="wCGS2TDMBN-PWQRGa2nd-93" value=":Firestore" style="shape=umlLifeline;perimeter=lifelinePerimeter;whiteSpace=wrap;html=1;container=0;dropTarget=0;collapsible=0;recursiveResize=0;outlineConnect=0;portConstraint=eastwest;newEdgeStyle={&quot;edgeStyle&quot;:&quot;elbowEdgeStyle&quot;,&quot;elbow&quot;:&quot;vertical&quot;,&quot;curved&quot;:0,&quot;rounded&quot;:0};" vertex="1" parent="1">
          <mxGeometry x="409" y="40" width="130" height="160" as="geometry" />
        </mxCell>
        <mxCell id="wCGS2TDMBN-PWQRGa2nd-94" value="" style="html=1;points=[];perimeter=orthogonalPerimeter;outlineConnect=0;targetShapes=umlLifeline;portConstraint=eastwest;newEdgeStyle={&quot;edgeStyle&quot;:&quot;elbowEdgeStyle&quot;,&quot;elbow&quot;:&quot;vertical&quot;,&quot;curved&quot;:0,&quot;rounded&quot;:0};" vertex="1" parent="wCGS2TDMBN-PWQRGa2nd-93">
          <mxGeometry x="60" y="80" width="10" height="60" as="geometry" />
        </mxCell>
        <mxCell id="wCGS2TDMBN-PWQRGa2nd-96" value="&lt;div&gt;&lt;font style=&quot;font-size: 10px;&quot;&gt;validateCredentials(username, password)&lt;/font&gt;&lt;/div&gt;" style="html=1;verticalAlign=bottom;endArrow=block;edgeStyle=elbowEdgeStyle;elbow=vertical;curved=0;rounded=0;" edge="1" parent="1">
          <mxGeometry relative="1" as="geometry">
            <mxPoint x="289" y="130" as="sourcePoint" />
            <Array as="points">
              <mxPoint x="374" y="130" />
            </Array>
            <mxPoint x="459" y="130" as="targetPoint" />
            <mxPoint as="offset" />
          </mxGeometry>
        </mxCell>
        <mxCell id="wCGS2TDMBN-PWQRGa2nd-97" value="&lt;div&gt;Auth result&lt;/div&gt;" style="html=1;verticalAlign=bottom;endArrow=open;dashed=1;endSize=8;edgeStyle=elbowEdgeStyle;elbow=vertical;curved=0;rounded=0;" edge="1" parent="1">
          <mxGeometry relative="1" as="geometry">
            <mxPoint x="289" y="160" as="targetPoint" />
            <Array as="points">
              <mxPoint x="384" y="160" />
            </Array>
            <mxPoint x="459" y="160" as="sourcePoint" />
          </mxGeometry>
        </mxCell>
        <mxCell id="wCGS2TDMBN-PWQRGa2nd-146" value="Application" style="shape=umlLifeline;perimeter=lifelinePerimeter;whiteSpace=wrap;html=1;container=0;dropTarget=0;collapsible=0;recursiveResize=0;outlineConnect=0;portConstraint=eastwest;newEdgeStyle={&quot;edgeStyle&quot;:&quot;elbowEdgeStyle&quot;,&quot;elbow&quot;:&quot;vertical&quot;,&quot;curved&quot;:0,&quot;rounded&quot;:0};size=30;" vertex="1" parent="1">
          <mxGeometry x="230.75" y="340" width="100" height="250" as="geometry" />
        </mxCell>
        <mxCell id="wCGS2TDMBN-PWQRGa2nd-133" value="" style="rounded=0;whiteSpace=wrap;html=1;" vertex="1" parent="1">
          <mxGeometry x="5.75" y="442.30999999999995" width="510" height="103.13" as="geometry" />
        </mxCell>
        <mxCell id="wCGS2TDMBN-PWQRGa2nd-134" value="alt" style="rounded=0;whiteSpace=wrap;html=1;" vertex="1" parent="1">
          <mxGeometry x="5.75" y="442.30999999999995" width="60" height="25.3825" as="geometry" />
        </mxCell>
        <mxCell id="wCGS2TDMBN-PWQRGa2nd-135" value="else [failure] InvalidResponse" style="html=1;verticalAlign=bottom;endArrow=open;dashed=1;endSize=8;edgeStyle=elbowEdgeStyle;elbow=vertical;curved=0;rounded=0;" edge="1" parent="1">
          <mxGeometry relative="1" as="geometry">
            <mxPoint x="278.25" y="518.106875" as="targetPoint" />
            <Array as="points">
              <mxPoint x="373.25" y="518.106875" />
            </Array>
            <mxPoint x="448.25" y="518.106875" as="sourcePoint" />
          </mxGeometry>
        </mxCell>
        <mxCell id="wCGS2TDMBN-PWQRGa2nd-136" value="&lt;div&gt;InvalidReturn&lt;/div&gt;" style="html=1;verticalAlign=bottom;endArrow=open;dashed=1;endSize=8;edgeStyle=elbowEdgeStyle;elbow=vertical;curved=0;rounded=0;" edge="1" parent="1">
          <mxGeometry relative="1" as="geometry">
            <mxPoint x="105.75" y="517.935" as="targetPoint" />
            <Array as="points">
              <mxPoint x="200.75" y="517.935" />
            </Array>
            <mxPoint x="275.75" y="517.935" as="sourcePoint" />
          </mxGeometry>
        </mxCell>
        <mxCell id="wCGS2TDMBN-PWQRGa2nd-137" value="&lt;div&gt;[sucess] displayValid()&lt;/div&gt;" style="html=1;verticalAlign=bottom;endArrow=open;dashed=1;endSize=8;edgeStyle=elbowEdgeStyle;elbow=vertical;curved=0;rounded=0;" edge="1" parent="1">
          <mxGeometry relative="1" as="geometry">
            <mxPoint x="278.25" y="483.73187499999995" as="targetPoint" />
            <Array as="points">
              <mxPoint x="373.25" y="483.73187499999995" />
            </Array>
            <mxPoint x="448.25" y="483.73187499999995" as="sourcePoint" />
          </mxGeometry>
        </mxCell>
        <mxCell id="wCGS2TDMBN-PWQRGa2nd-138" value="&lt;div&gt;ValidResponse&lt;/div&gt;" style="html=1;verticalAlign=bottom;endArrow=open;dashed=1;endSize=8;edgeStyle=elbowEdgeStyle;elbow=vertical;curved=0;rounded=0;" edge="1" parent="1">
          <mxGeometry relative="1" as="geometry">
            <mxPoint x="105.75" y="483.55999999999995" as="targetPoint" />
            <Array as="points">
              <mxPoint x="200.75" y="483.55999999999995" />
            </Array>
            <mxPoint x="275.75" y="483.55999999999995" as="sourcePoint" />
          </mxGeometry>
        </mxCell>
        <mxCell id="wCGS2TDMBN-PWQRGa2nd-140" value="" style="html=1;points=[];perimeter=orthogonalPerimeter;outlineConnect=0;targetShapes=umlLifeline;portConstraint=eastwest;newEdgeStyle={&quot;edgeStyle&quot;:&quot;elbowEdgeStyle&quot;,&quot;elbow&quot;:&quot;vertical&quot;,&quot;curved&quot;:0,&quot;rounded&quot;:0};" vertex="1" parent="1">
          <mxGeometry x="275.75" y="380" width="10" height="150" as="geometry" />
        </mxCell>
        <mxCell id="wCGS2TDMBN-PWQRGa2nd-141" value="&lt;div&gt;&lt;font style=&quot;font-size: 10px;&quot;&gt;CRUD request&lt;/font&gt;&lt;/div&gt;" style="html=1;verticalAlign=bottom;endArrow=block;edgeStyle=elbowEdgeStyle;elbow=vertical;curved=0;rounded=0;" edge="1" parent="1">
          <mxGeometry relative="1" as="geometry">
            <mxPoint x="105.75" y="401.80999999999995" as="sourcePoint" />
            <Array as="points">
              <mxPoint x="190.75" y="401.80999999999995" />
            </Array>
            <mxPoint x="245.75" y="401.80999999999995" as="targetPoint" />
          </mxGeometry>
        </mxCell>
        <mxCell id="wCGS2TDMBN-PWQRGa2nd-142" value="" style="html=1;points=[];perimeter=orthogonalPerimeter;outlineConnect=0;targetShapes=umlLifeline;portConstraint=eastwest;newEdgeStyle={&quot;edgeStyle&quot;:&quot;elbowEdgeStyle&quot;,&quot;elbow&quot;:&quot;vertical&quot;,&quot;curved&quot;:0,&quot;rounded&quot;:0};" vertex="1" parent="1">
          <mxGeometry x="482.25" y="382.30999999999995" width="10" height="60" as="geometry" />
        </mxCell>
        <mxCell id="wCGS2TDMBN-PWQRGa2nd-143" value="Validate&amp;amp;&lt;span style=&quot;font-size: 10px;&quot;&gt;Process&lt;/span&gt;" style="html=1;verticalAlign=bottom;endArrow=block;edgeStyle=elbowEdgeStyle;elbow=horizontal;curved=0;rounded=0;" edge="1" parent="1">
          <mxGeometry relative="1" as="geometry">
            <mxPoint x="302.25" y="392.30999999999995" as="sourcePoint" />
            <Array as="points">
              <mxPoint x="387.25" y="392.30999999999995" />
            </Array>
            <mxPoint x="472.25" y="392.30999999999995" as="targetPoint" />
            <mxPoint as="offset" />
          </mxGeometry>
        </mxCell>
        <mxCell id="wCGS2TDMBN-PWQRGa2nd-148" value="Firestore" style="shape=umlLifeline;perimeter=lifelinePerimeter;whiteSpace=wrap;html=1;container=0;dropTarget=0;collapsible=0;recursiveResize=0;outlineConnect=0;portConstraint=eastwest;newEdgeStyle={&quot;edgeStyle&quot;:&quot;elbowEdgeStyle&quot;,&quot;elbow&quot;:&quot;vertical&quot;,&quot;curved&quot;:0,&quot;rounded&quot;:0};size=30;" vertex="1" parent="1">
          <mxGeometry x="437.25" y="340" width="100" height="250" as="geometry" />
        </mxCell>
        <mxCell id="wCGS2TDMBN-PWQRGa2nd-149" value="Application" style="shape=umlLifeline;perimeter=lifelinePerimeter;whiteSpace=wrap;html=1;container=0;dropTarget=0;collapsible=0;recursiveResize=0;outlineConnect=0;portConstraint=eastwest;newEdgeStyle={&quot;edgeStyle&quot;:&quot;elbowEdgeStyle&quot;,&quot;elbow&quot;:&quot;vertical&quot;,&quot;curved&quot;:0,&quot;rounded&quot;:0};size=30;" vertex="1" parent="1">
          <mxGeometry x="225" y="630" width="100" height="250" as="geometry" />
        </mxCell>
        <mxCell id="wCGS2TDMBN-PWQRGa2nd-150" value="" style="rounded=0;whiteSpace=wrap;html=1;" vertex="1" parent="1">
          <mxGeometry y="732.31" width="510" height="103.13" as="geometry" />
        </mxCell>
        <mxCell id="wCGS2TDMBN-PWQRGa2nd-151" value="alt" style="rounded=0;whiteSpace=wrap;html=1;" vertex="1" parent="1">
          <mxGeometry y="732.31" width="60" height="25.3825" as="geometry" />
        </mxCell>
        <mxCell id="wCGS2TDMBN-PWQRGa2nd-152" value="else [failure] InvalidResponse" style="html=1;verticalAlign=bottom;endArrow=open;dashed=1;endSize=8;edgeStyle=elbowEdgeStyle;elbow=vertical;curved=0;rounded=0;" edge="1" parent="1">
          <mxGeometry relative="1" as="geometry">
            <mxPoint x="272.5" y="808.106875" as="targetPoint" />
            <Array as="points">
              <mxPoint x="367.5" y="808.106875" />
            </Array>
            <mxPoint x="442.5" y="808.106875" as="sourcePoint" />
          </mxGeometry>
        </mxCell>
        <mxCell id="wCGS2TDMBN-PWQRGa2nd-153" value="&lt;div&gt;InvalidReturn&lt;/div&gt;" style="html=1;verticalAlign=bottom;endArrow=open;dashed=1;endSize=8;edgeStyle=elbowEdgeStyle;elbow=vertical;curved=0;rounded=0;" edge="1" parent="1">
          <mxGeometry relative="1" as="geometry">
            <mxPoint x="100" y="807.935" as="targetPoint" />
            <Array as="points">
              <mxPoint x="195" y="807.935" />
            </Array>
            <mxPoint x="270" y="807.935" as="sourcePoint" />
          </mxGeometry>
        </mxCell>
        <mxCell id="wCGS2TDMBN-PWQRGa2nd-154" value="&lt;div&gt;[sucess] displayValidRead()&lt;/div&gt;" style="html=1;verticalAlign=bottom;endArrow=open;dashed=1;endSize=8;edgeStyle=elbowEdgeStyle;elbow=vertical;curved=0;rounded=0;" edge="1" parent="1">
          <mxGeometry relative="1" as="geometry">
            <mxPoint x="272.5" y="773.731875" as="targetPoint" />
            <Array as="points">
              <mxPoint x="367.5" y="773.731875" />
            </Array>
            <mxPoint x="442.5" y="773.731875" as="sourcePoint" />
          </mxGeometry>
        </mxCell>
        <mxCell id="wCGS2TDMBN-PWQRGa2nd-155" value="&lt;div&gt;ValidReadAccess&lt;/div&gt;" style="html=1;verticalAlign=bottom;endArrow=open;dashed=1;endSize=8;edgeStyle=elbowEdgeStyle;elbow=vertical;curved=0;rounded=0;" edge="1" parent="1">
          <mxGeometry relative="1" as="geometry">
            <mxPoint x="100" y="773.56" as="targetPoint" />
            <Array as="points">
              <mxPoint x="195" y="773.56" />
            </Array>
            <mxPoint x="270" y="773.56" as="sourcePoint" />
          </mxGeometry>
        </mxCell>
        <mxCell id="wCGS2TDMBN-PWQRGa2nd-156" value="" style="html=1;points=[];perimeter=orthogonalPerimeter;outlineConnect=0;targetShapes=umlLifeline;portConstraint=eastwest;newEdgeStyle={&quot;edgeStyle&quot;:&quot;elbowEdgeStyle&quot;,&quot;elbow&quot;:&quot;vertical&quot;,&quot;curved&quot;:0,&quot;rounded&quot;:0};" vertex="1" parent="1">
          <mxGeometry x="270" y="670" width="10" height="150" as="geometry" />
        </mxCell>
        <mxCell id="wCGS2TDMBN-PWQRGa2nd-157" value="&lt;div&gt;&lt;font style=&quot;font-size: 10px;&quot;&gt;KeywordSearch&lt;/font&gt;&lt;/div&gt;" style="html=1;verticalAlign=bottom;endArrow=block;edgeStyle=elbowEdgeStyle;elbow=vertical;curved=0;rounded=0;" edge="1" parent="1">
          <mxGeometry relative="1" as="geometry">
            <mxPoint x="100" y="691.81" as="sourcePoint" />
            <Array as="points">
              <mxPoint x="185" y="691.81" />
            </Array>
            <mxPoint x="240" y="691.81" as="targetPoint" />
          </mxGeometry>
        </mxCell>
        <mxCell id="wCGS2TDMBN-PWQRGa2nd-158" value="" style="html=1;points=[];perimeter=orthogonalPerimeter;outlineConnect=0;targetShapes=umlLifeline;portConstraint=eastwest;newEdgeStyle={&quot;edgeStyle&quot;:&quot;elbowEdgeStyle&quot;,&quot;elbow&quot;:&quot;vertical&quot;,&quot;curved&quot;:0,&quot;rounded&quot;:0};" vertex="1" parent="1">
          <mxGeometry x="476.5" y="672.31" width="10" height="60" as="geometry" />
        </mxCell>
        <mxCell id="wCGS2TDMBN-PWQRGa2nd-159" value="Reprocess/Reframe" style="html=1;verticalAlign=bottom;endArrow=block;edgeStyle=elbowEdgeStyle;elbow=horizontal;curved=0;rounded=0;" edge="1" parent="1">
          <mxGeometry relative="1" as="geometry">
            <mxPoint x="296.5" y="690" as="sourcePoint" />
            <Array as="points">
              <mxPoint x="381.5" y="690" />
            </Array>
            <mxPoint x="466.5" y="690" as="targetPoint" />
            <mxPoint as="offset" />
          </mxGeometry>
        </mxCell>
        <mxCell id="wCGS2TDMBN-PWQRGa2nd-160" value="ningasAPI" style="shape=umlLifeline;perimeter=lifelinePerimeter;whiteSpace=wrap;html=1;container=0;dropTarget=0;collapsible=0;recursiveResize=0;outlineConnect=0;portConstraint=eastwest;newEdgeStyle={&quot;edgeStyle&quot;:&quot;elbowEdgeStyle&quot;,&quot;elbow&quot;:&quot;vertical&quot;,&quot;curved&quot;:0,&quot;rounded&quot;:0};size=30;" vertex="1" parent="1">
          <mxGeometry x="431.5" y="630" width="100" height="250" as="geometry" />
        </mxCell>
      </root>
    </mxGraphModel>
  </diagram>
</mxfile>
